<?xml version="1.0" encoding="UTF-8"?>
<svg id="Calque_1" xmlns="http://www.w3.org/2000/svg" version="1.1" viewBox="0 0 348.9 348.9">
  <!-- Generator: Adobe Illustrator 29.0.1, SVG Export Plug-In . SVG Version: 2.1.0 Build 192)  -->
  <defs>
    <style>
      .st0 {
        fill: #f4f3ed;
      }
    </style>
  </defs>
  <circle class="st0" cx="-194.4" cy="174.4" r="174.4"/>
  <g>
    <path d="M-144.4,149.2v88.1c0,13.6-3.8,24.1-11.5,31.5-7.7,7.4-18,11-31,11s-24.6-3.9-32.8-11.6c-8.2-7.7-12.3-18.7-12.3-33h31.3c0,5.4,1.1,9.5,3.3,12.2s5.4,4.1,9.6,4.1,6.8-1.2,8.8-3.7,3.1-6,3.1-10.7v-88.1h31.5,0Z"/>
    <g>
      <path d="M-144.4,148.7v29.3c-2.3,7.9-6.3,15.2-11.9,21.9-5.6,6.8-12.7,12.2-21.3,16.4-8.6,4.2-18.3,6.2-29.1,6.2s-24.2-2.8-34.2-8.4c-10-5.6-17.8-13.4-23.4-23.3-5.6-9.9-8.4-21.3-8.4-34.1s2.8-24.1,8.4-34.2c5.6-10,13.4-17.8,23.3-23.4,8.9-5,18.9-7.8,30.1-8.3,1.3,0,2.7,0,4,0h13.9v29.3h-17.9c-8.3.8-15.1,4.1-20.5,9.9-6.1,6.7-9.2,15.6-9.2,26.8s3.2,21.2,9.7,27.9c6.4,6.7,15.3,10,26.6,10s14.3-2,19.6-5.9c5.4-3.9,9.2-9.6,11.7-17h-40v-23.2h68.5Z"/>
      <path d="M-160.7,90.4h1.2c8.4,0,15.1,6.8,15.1,15.1h0c0,8.4-6.8,15.1-15.1,15.1h-1.2c-8.4,0-15.1-6.8-15.1-15.1h0c0-8.4,6.8-15.1,15.1-15.1Z"/>
    </g>
  </g>
  <g>
    <path d="M224.5,149.2v88.1c0,13.6-3.8,24.1-11.5,31.5-7.7,7.4-18,11-31,11s-24.6-3.9-32.8-11.6c-8.2-7.7-12.3-18.7-12.3-33h31.3c0,5.4,1.1,9.5,3.3,12.2s5.4,4.1,9.6,4.1,6.8-1.2,8.8-3.7,3.1-6,3.1-10.7v-88.1h31.5,0Z"/>
    <g>
      <path d="M224.5,148.7v29.3c-2.3,7.9-6.3,15.2-11.9,21.9-5.6,6.8-12.7,12.2-21.3,16.4-8.6,4.2-18.3,6.2-29.1,6.2s-24.2-2.8-34.2-8.4c-10-5.6-17.8-13.4-23.4-23.3-5.6-9.9-8.4-21.3-8.4-34.1s2.8-24.1,8.4-34.2c5.6-10,13.4-17.8,23.3-23.4,8.9-5,18.9-7.8,30.1-8.3,1.3,0,2.7,0,4,0h13.9v29.3h-17.9c-8.3.8-15.1,4.1-20.5,9.9-6.1,6.7-9.2,15.6-9.2,26.8s3.2,21.2,9.7,27.9c6.4,6.7,15.3,10,26.6,10s14.3-2,19.6-5.9c5.4-3.9,9.2-9.6,11.7-17h-40v-23.2h68.5Z"/>
      <path d="M208.2,90.4h1.2c8.4,0,15.1,6.8,15.1,15.1h0c0,8.4-6.8,15.1-15.1,15.1h-1.2c-8.4,0-15.1-6.8-15.1-15.1h0c0-8.4,6.8-15.1,15.1-15.1Z"/>
    </g>
  </g>
</svg>