<?xml version="1.0" encoding="UTF-8"?>
<svg id="Calque_1" data-name="Calque 1" xmlns="http://www.w3.org/2000/svg" viewBox="0 0 348.9 348.9">
  <defs>
    <style>
      .cls-1 {
        fill: #f4f3ed;
      }
    </style>
  </defs>
  <circle class="cls-1" cx="174.45" cy="174.45" r="174.45"/>
  <g>
    <path d="M224.53,149.17v88.06c0,13.63-3.84,24.13-11.51,31.5-7.68,7.37-18.02,11.05-31.04,11.05s-24.56-3.87-32.79-11.61c-8.23-7.74-12.34-18.73-12.34-32.97h31.32c0,5.4,1.1,9.49,3.32,12.25s5.4,4.15,9.58,4.15c3.81,0,6.75-1.23,8.84-3.69,2.09-2.46,3.13-6.02,3.13-10.68v-88.06h31.5Z"/>
    <g>
      <path d="M224.53,148.68v29.3c-2.33,7.85-6.29,15.17-11.87,21.93-5.6,6.75-12.69,12.2-21.29,16.4-8.6,4.17-18.29,6.24-29.09,6.24-12.79,0-24.18-2.79-34.18-8.37-10-5.6-17.81-13.36-23.39-23.31-5.6-9.95-8.39-21.31-8.39-34.08s2.79-24.15,8.39-34.18c5.58-10,13.36-17.81,23.28-23.39,8.9-4.99,18.93-7.75,30.06-8.29,1.33-.08,2.66-.1,4.02-.1h13.87v29.3h-17.88c-8.34.79-15.15,4.07-20.47,9.85-6.14,6.7-9.21,15.63-9.21,26.81,0,11.92,3.22,21.21,9.67,27.91,6.45,6.68,15.33,10.03,26.61,10.03,7.75,0,14.28-1.97,19.62-5.88,5.35-3.94,9.24-9.59,11.69-16.96h-39.96v-23.21h68.52Z"/>
      <rect x="193.03" y="90.36" width="31.5" height="30.25" rx="15.13" ry="15.13"/>
    </g>
  </g>
</svg>