<?xml version="1.0" encoding="UTF-8"?>
<svg id="Calque_1" data-name="Calque 1" xmlns="http://www.w3.org/2000/svg" xmlns:xlink="http://www.w3.org/1999/xlink" viewBox="0 0 620.63 306.37">
  <defs>
    <style>
      .cls-1 {
        fill: none;
      }

      .cls-2 {
        fill: #1c1c1c;
      }

      .cls-3 {
        clip-path: url(#clippath-1);
      }

      .cls-4 {
        clip-path: url(#clippath-3);
      }

      .cls-5 {
        clip-path: url(#clippath-2);
      }

      .cls-6 {
        clip-path: url(#clippath);
      }
    </style>
    <clipPath id="clippath">
      <rect class="cls-1" x=".05" y="0" width="620.58" height="306.37"/>
    </clipPath>
    <clipPath id="clippath-1">
      <rect class="cls-1" x=".05" y="0" width="620.58" height="306.37"/>
    </clipPath>
    <clipPath id="clippath-2">
      <rect class="cls-1" x=".05" y="0" width="620.58" height="306.37"/>
    </clipPath>
    <clipPath id="clippath-3">
      <rect class="cls-1" x=".05" width="620.58" height="306.37"/>
    </clipPath>
  </defs>
  <rect class="cls-2" x="98.89" y="127.57" width="25.29" height="107.51"/>
  <rect class="cls-2" x="98.93" y="237.9" width="25.29" height="38.12"/>
  <g class="cls-6">
    <path class="cls-2" d="M194.48,277.57c15.55,0,26.55-13.78,26.55-33.38s-11-32.87-26.55-32.87c-5.69,0-10.75,1.9-14.92,5.18v-26.42h-25.29v85.98h18.71l4.3-5.56c4.55,4.43,10.37,7.08,17.2,7.08M187.65,255.07c-5.69,0-9.36-4.17-9.36-10.75s3.67-10.75,9.36-10.75,9.36,4.17,9.36,10.75-3.67,10.75-9.36,10.75"/>
  </g>
  <path class="cls-2" d="M200.44,146.36h-22.76v6.57h-19.22v-2.28c0-3.16-2.15-5.31-5.56-5.31h-12.14v-24.28h17.7v-17.45c0-3.16-2.15-5.31-5.56-5.31h-12.14v-24.28h17.7v-15.42h19.22v15.42h15.17c7.21,0,9.61-6.57,7.08-13.15l19.72-4.55c8.09,15.68,3.54,42.99-19.22,42.99h-22.76v21.75h15.17c7.21,0,9.61-6.57,7.08-13.15l19.72-4.55c8.09,15.68,3.54,42.99-19.22,42.99Z"/>
  <rect class="cls-2" x="71.17" y="150.33" width="21.69" height="85.98"/>
  <g class="cls-3">
    <path class="cls-2" d="M62.92,302.86c19.35,0,33.88-12.26,33.88-30.34v-59.68h-13.65l-5.82,5.82c-4.81-4.68-11.38-7.33-18.96-7.33-16.06,0-27.31,12.39-27.31,29.84s11.51,29.84,27.81,29.84c4.93,0,9.36-1.14,13.15-3.16v7.21c0,5.56-2.78,9.1-7.08,9.1-4.05,0-6.83-3.03-7.08-8.09l-26.3,5.06c1.52,12.64,14.54,21.75,31.36,21.75M64.69,257.34c-5.44,0-8.85-4.43-8.85-11.38s3.41-11.38,8.85-11.38,8.85,4.42,8.85,11.38-3.41,11.38-8.85,11.38"/>
    <path class="cls-2" d="M252.45,277.57c13.4,0,25.29-6.57,29.33-16.18l-21.24-9.61c-.88,3.03-3.92,5.06-7.84,5.06-4.93,0-8.34-3.29-9.61-8.6h39.7c2.02-20.74-10.62-36.92-31.1-36.92-18.84,0-32.37,13.78-32.37,33.12s13.78,33.13,33.13,33.13M242.97,239.64c1.01-5.06,4.17-8.09,8.47-8.09s7.33,3.16,7.84,8.09h-16.31Z"/>
    <path class="cls-2" d="M283,276.79h25.29v-27.82c0-9.1,8.09-12.14,15.68-8.6l4.05-26.8c-8.35-3.29-17.95-1.01-21.37,6.32l-4.93-6.32h-18.71v63.22Z"/>
    <path class="cls-2" d="M366.03,276.88l-4.55-19.72c-6.58,2.53-13.15.12-13.15-7.08v-15.17h15.42v-19.22h-15.42v-17.7h-24.28v12.14c0,3.41-2.15,5.56-5.31,5.56h-2.28v19.22h6.57v22.76c0,22.76,27.31,27.31,42.99,19.22"/>
  </g>
  <g class="cls-5">
    <path class="cls-2" d="M207.12,179.19c0-13.4-6.57-25.29-16.18-29.33l-9.61,21.24c3.03.88,5.06,3.92,5.06,7.84,0,4.93-3.29,8.34-8.6,9.61v-39.7c-20.74-2.02-36.92,10.62-36.92,31.1,0,18.84,13.78,32.37,33.12,32.37s33.13-13.78,33.13-33.13M169.19,188.68c-5.06-1.01-8.09-4.17-8.09-8.47s3.16-7.33,8.09-7.84v16.31Z"/>
  </g>
  <rect class="cls-2" x="126.96" y="191.04" width="24.27" height="85.1"/>
  <g class="cls-4">
    <path class="cls-2" d="M126.44,188.2c8.51-.02,17.01-.03,25.52-.05-.04-12.68-.08-25.35-.12-38.03h-25.29c-.04,12.69-.08,25.39-.12,38.08M139.2,145.1c7.71,0,12.9-4.9,12.9-12.05s-5.18-12.05-12.9-12.05-12.9,4.9-12.9,12.05,5.18,12.05,12.9,12.05"/>
    <path class="cls-2" d="M0,220.12l10.87,22.76c14.16-1.77,24.02-11.63,24.02-23.77v-68.78H9.61v59.17c0,5.94-3.79,10.12-9.61,10.62M22.25,145.27c7.71,0,12.9-4.93,12.9-12.14s-5.18-12.14-12.9-12.14-12.9,4.93-12.9,12.14,5.18,12.14,12.9,12.14"/>
    <path class="cls-2" d="M57.05,215.06c7.71,0,14.03-3.29,16.69-7.46l4.05,5.94h18.96l-.25-12.64v-50.57h-25.29v34.9c0,3.79-2.4,6.58-5.82,6.58s-5.82-2.78-5.82-6.58v-34.9h-25.29v41.47c0,13.53,9.48,23.26,22.76,23.26"/>
    <path class="cls-2" d="M208.3,30.56c0-13.4-6.57-25.29-16.18-29.33l-9.61,21.24c3.03.89,5.06,3.92,5.06,7.84,0,4.93-3.29,8.34-8.6,9.61V.21c-20.74-2.02-36.92,10.62-36.92,31.1,0,18.84,13.78,32.37,33.12,32.37s33.13-13.78,33.13-33.13M170.37,40.04c-5.06-1.01-8.09-4.17-8.09-8.47s3.16-7.33,8.09-7.84v16.31Z"/>
  </g>
</svg>